<?xml version="1.0" encoding="iso-8859-1"?>
<!-- Generator: Adobe Illustrator 19.0.0, SVG Export Plug-In . SVG Version: 6.00 Build 0)  -->
<svg version="1.1" id="Capa_1" xmlns="http://www.w3.org/2000/svg" xmlns:xlink="http://www.w3.org/1999/xlink" x="0px" y="0px"
	 viewBox="0 0 512 512" style="enable-background:new 0 0 512 512;" xml:space="preserve">
<g>
	<g>
		<path d="M488.75,359.605c-4.764-54.602-28.307-105.306-67.523-144.522c-40.579-40.579-93.458-64.378-150.227-67.952v-24.736h-30
			v24.736c-56.77,3.573-109.648,27.373-150.228,67.952c-39.217,39.216-62.76,89.921-67.523,144.522H0v30h512v-30H488.75z
			 M53.379,359.605C63.787,256.991,150.687,176.643,256,176.643s192.213,80.348,202.62,182.962H53.379z"/>
	</g>
</g>
<g>
	<g>
		<path d="M157.41,239.364c-28.321,19.844-49.796,47.341-62.103,79.518l28.021,10.717c10.16-26.563,27.898-49.27,51.297-65.666
			c23.917-16.758,52.056-25.615,81.376-25.615v-30C220.489,208.318,186.397,219.054,157.41,239.364z"/>
	</g>
</g>
<g>
</g>
<g>
</g>
<g>
</g>
<g>
</g>
<g>
</g>
<g>
</g>
<g>
</g>
<g>
</g>
<g>
</g>
<g>
</g>
<g>
</g>
<g>
</g>
<g>
</g>
<g>
</g>
<g>
</g>
</svg>
