<svg height="512pt" viewBox="-83 0 512 512" width="512pt" xmlns="http://www.w3.org/2000/svg"><path d="m315.347656 109.578125v-19.527344h30.027344v-90.050781h-345.375v90.050781h30.023438v19.527344c0 53.238281 24.324218 98.074219 70.34375 129.664063 10.003906 6.863281 19.980468 12.375 29.125 16.75-9.144532 4.378906-19.121094 9.886718-29.125 16.753906-46.019532 31.589844-70.34375 76.425781-70.34375 129.664062v19.539063h-30.023438v90.050781h345.375v-90.050781h-30.027344v-19.539063c0-53.238281-24.324218-98.074218-70.339844-129.664062-10.003906-6.863282-19.984374-12.375-29.125-16.753906 9.140626-4.375 19.121094-9.882813 29.125-16.75 46.015626-31.589844 70.339844-76.425782 70.339844-129.664063zm-285.347656-79.578125h285.371094v30.050781h-285.371094zm285.371094 452h-285.371094v-30.050781h285.371094zm-30.023438-60.050781h-225.324218v-19.539063c0-12.527344 1.609374-24.367187 4.796874-35.511718 6.03125.671874 11.078126 2.109374 16.621094 3.691406 8.761719 2.5 18.355469 5.238281 32.125 5.238281 5.5625 0 11.804688-.445313 18.949219-1.535156 24.824219-3.789063 36.953125-11.742188 47.648437-18.761719 9.3125-6.109375 17.355469-11.386719 35.714844-14.1875 18.363282-2.796875 27.613282-.160156 38.320313 2.894531 5.65625 1.613281 11.867187 3.382813 19.40625 4.394531 7.800781 16.199219 11.742187 34.148438 11.742187 53.777344zm-39.820312-110.59375c-8.910156-1.441407-19.6875-1.878907-34.171875.332031-24.824219 3.789062-36.953125 11.742188-47.648438 18.761719-9.3125 6.109375-17.355469 11.386719-35.714843 14.1875-18.363282 2.796875-27.613282.160156-38.320313-2.894531-3.835937-1.097657-7.890625-2.246094-12.414063-3.191407 9.347657-15.285156 22.464844-28.835937 39.332032-40.546875 23.511718-16.328125 47.503906-24.070312 56.09375-26.5 8.617187 2.433594 32.597656 10.179688 56.097656 26.5 6.070312 4.210938 11.644531 8.667969 16.746094 13.351563zm-72.839844-70.871094c-8.617188-2.433594-32.597656-10.179687-56.097656-26.5-37.53125-26.0625-56.5625-61.1875-56.5625-104.40625v-19.527344h225.320312v19.527344c0 43.21875-19.03125 78.34375-56.566406 104.40625-23.511719 16.328125-47.5 24.074219-56.09375 26.5zm0 0"/></svg>